<svg xmlns="http://www.w3.org/2000/svg" width="218" height="101" viewBox="0 0 218 101">
    <g fill="none" fill-rule="evenodd">
        <path fill="#4285F4" d="M211.572 62.93v26.466c-8.941 9.733-22.889 12.426-35.55 8.726-3.003-.861-5.925-2.394-8.642-4.009v5.79l-60.7.016-12.703-.016.006-6.197c-7.868 6.392-20.778 8.367-30.04 3.628-4.077-1.94-8.225-5.1-10.98-8.978-9.37 9.766-22.423 13.681-35.798 10.63-6.043-1.688-11.513-4.72-16.126-9.497l-.002-26.27c-2.969-10.847.57-21.87 8.905-29.231 7.402-6.034 18.167-8.548 27.572-5.1 3.791 1.292 7.26 3.376 10.372 6.32 9.798-8.116 25.07-10.665 37.085-5.602 4.578 1.867 8.869 4.525 12.696 8.26 6.973-8.188 17.166-11.923 27.823-9.409 1.788.502 3.576 1.006 5.222 1.903 3.505-1.293 6.974-2.728 10.979-2.764 8.512-.252 16.2 2.944 21.886 9.587 9.049-7.756 22.4-12.108 33.843-6.543 10.086 4.885 16.64 15.587 15.438 26.976-.194 1.842-.857 3.842-1.286 5.315z" transform="translate(1)"/>
        <path stroke="#4285F4" stroke-width=".29" d="M211.572 62.93v26.466c-8.941 9.733-22.889 12.426-35.55 8.726-3.003-.861-5.925-2.394-8.642-4.009v5.79l-60.7.016-12.703-.016.006-6.197c-7.868 6.392-20.778 8.367-30.04 3.628-4.077-1.94-8.225-5.1-10.98-8.978-9.37 9.766-22.423 13.681-35.798 10.63-6.043-1.688-11.513-4.72-16.126-9.497l-.002-26.27c-2.969-10.847.57-21.87 8.905-29.231 7.402-6.034 18.167-8.548 27.572-5.1 3.791 1.292 7.26 3.376 10.372 6.32 9.798-8.116 25.07-10.665 37.085-5.602 4.578 1.867 8.869 4.525 12.696 8.26 6.973-8.188 17.166-11.923 27.823-9.409 1.788.502 3.576 1.006 5.222 1.903 3.505-1.293 6.974-2.728 10.979-2.764 8.512-.252 16.2 2.944 21.886 9.587 9.049-7.756 22.4-12.108 33.843-6.543 10.086 4.885 16.64 15.587 15.438 26.976-.194 1.842-.857 3.842-1.286 5.315z" transform="translate(1)"/>
        <path fill="#FFFFFE" d="M208.308 63.823c.108 8.516-.072 15.607.036 24.087-8.463 8.731-22.232 10.512-33.491 6.593-3.836-1.39-7.387-3.742-10.65-6.343l.02 8.34-67.904.045s-.042-9.663 0-9.62c-6.956 8.123-16.954 11.818-27.567 9.288-6.706-1.603-13.196-6.557-16.53-12.756-8.355 10.261-20.69 15.18-33.993 12.578-5.736-1.39-11.023-3.757-15.362-7.998l-.02-26.281c-2.618-10.19.932-20.275 9.286-26.689 7.244-5.38 18.79-6.628 26.93-2.245 2.94 1.426 5.736 3.635 7.923 6.271 3.515-2.85 7.173-5.38 11.26-6.842 12.8-4.952 27.681-1.531 37.113 8.268l1.72 1.888c5.164-8.445 14.415-13.041 24.347-11.865 3.19.428 6.131 1.46 8.929 2.885 7.278-4.347 18.394-4.097 25.314.784 2.546 1.747 5.163 4.241 6.956 6.842 8.356-8.374 20.547-12.97 32.13-8.659 8.46 3.101 14.556 11.902 15.202 20.703.287 3.492-.933 7.661-1.65 10.726z" transform="translate(1)"/>
        <path stroke="#FFFFFE" stroke-linecap="square" stroke-width=".091" d="M208.308 63.823c.108 8.516-.072 15.607.036 24.087-8.463 8.731-22.232 10.512-33.491 6.593-3.836-1.39-7.387-3.742-10.65-6.343l.02 8.34-67.904.045s-.042-9.663 0-9.62c-6.956 8.123-16.954 11.818-27.567 9.288-6.706-1.603-13.196-6.557-16.53-12.756-8.355 10.261-20.69 15.18-33.993 12.578-5.736-1.39-11.023-3.757-15.362-7.998l-.02-26.281c-2.618-10.19.932-20.275 9.286-26.689 7.244-5.38 18.79-6.628 26.93-2.245 2.94 1.426 5.736 3.635 7.923 6.271 3.515-2.85 7.173-5.38 11.26-6.842 12.8-4.952 27.681-1.531 37.113 8.268l1.72 1.888c5.164-8.445 14.415-13.041 24.347-11.865 3.19.428 6.131 1.46 8.929 2.885 7.278-4.347 18.394-4.097 25.314.784 2.546 1.747 5.163 4.241 6.956 6.842 8.356-8.374 20.547-12.97 32.13-8.659 8.46 3.101 14.556 11.902 15.202 20.703.287 3.492-.933 7.661-1.65 10.726z" transform="translate(1)"/>
        <path fill="#FBBD06" d="M195.977 74.043c-10.531 5.66-22.318-1.025-24.11-2.94 4.391 4.678 14.042 7.858 21.751 5.826 5.019-1.57 9.807-4.778 13.069-9.483-.015 0 .004 18.463 0 18.497-7.743 7.665-20.706 9.632-30.888 5.818-5.127-1.925-9.43-5.313-13.23-9.84l.021 11.821-16.513.015.036-44.78c-.016.02-.105-2.832-3.78-2.832-3.405 0-3.495 3.03-3.534 3.045l.039 44.374-15.885.015.021-44.404c-.135-1.248-.539-2.852-3.763-2.852-3.05 0-3.229 1.337-3.644 2.797l.036 44.637-16.65-.015V76.896c-1.524 7.042-9.63 14.793-17.444 16.397-9.717 2.21-19.253-1.177-25.06-9.34-1.292-1.89-2.225-3.958-3.084-6.061C47.054 88.837 35.51 94.862 22.818 93.9c-6.525-.713-12.026-3.19-16.901-7.645V66.911c2.114 3.175 5.32 6.203 8.727 7.985 6.454 3.637 16.244 3.407 22.551-.606.81-.514 3-2.103 2.826-2.03.264-.189-3.092 1.961-6.32 2.63-7.978 1.653-14.79.791-20.777-4.201C7.796 66.339 5.286 60.42 5 53.825c.109-7.68 4.768-15.26 12.047-18.967 6.596-3.601 16.42-3.709 22.802.427 2.832 1.676 5.843 4.207 7.67 6.989h.252c8.138-8.628 19.79-12.23 31.586-9.235 7.314 1.855 14.305 6.703 18.68 13.442h.143c2.402-6.81 9.357-12.373 16.276-13.69 5.772-1.106 11.651.106 16.277 2.994 1.433-.571 2.76-1.391 4.195-1.962 7.744-3.03 17.065-1.247 22.98 4.457 2.045 1.855 3.371 4.137 4.661 6.419 7.278-8.914 17.856-14.012 29.4-11.303 7.241 1.712 13.444 8.128 15.237 15.224 2.796 10.16-1.99 20.458-11.229 25.423z" transform="translate(1)"/>
        <path stroke="#FFFFFE" stroke-width=".072" d="M195.977 74.043c-10.531 5.66-22.318-1.025-24.11-2.94 4.391 4.678 14.042 7.858 21.751 5.826 5.019-1.57 9.807-4.778 13.069-9.483-.015 0 .004 18.463 0 18.497-7.743 7.665-20.706 9.632-30.888 5.818-5.127-1.925-9.43-5.313-13.23-9.84l.021 11.821-16.513.015.036-44.78c-.016.02-.105-2.832-3.78-2.832-3.405 0-3.495 3.03-3.534 3.045l.039 44.374-15.885.015.021-44.404c-.135-1.248-.539-2.852-3.763-2.852-3.05 0-3.229 1.337-3.644 2.797l.036 44.637-16.65-.015V76.896c-1.524 7.042-9.63 14.793-17.444 16.397-9.717 2.21-19.253-1.177-25.06-9.34-1.292-1.89-2.225-3.958-3.084-6.061C47.054 88.837 35.51 94.862 22.818 93.9c-6.525-.713-12.026-3.19-16.901-7.645V66.911c2.114 3.175 5.32 6.203 8.727 7.985 6.454 3.637 16.244 3.407 22.551-.606.81-.514 3-2.103 2.826-2.03.264-.189-3.092 1.961-6.32 2.63-7.978 1.653-14.79.791-20.777-4.201C7.796 66.339 5.286 60.42 5 53.825c.109-7.68 4.768-15.26 12.047-18.967 6.596-3.601 16.42-3.709 22.802.427 2.832 1.676 5.843 4.207 7.67 6.989h.252c8.138-8.628 19.79-12.23 31.586-9.235 7.314 1.855 14.305 6.703 18.68 13.442h.143c2.402-6.81 9.357-12.373 16.276-13.69 5.772-1.106 11.651.106 16.277 2.994 1.433-.571 2.76-1.391 4.195-1.962 7.744-3.03 17.065-1.247 22.98 4.457 2.045 1.855 3.371 4.137 4.661 6.419 7.278-8.914 17.856-14.012 29.4-11.303 7.241 1.712 13.444 8.128 15.237 15.224 2.796 10.16-1.99 20.458-11.229 25.423z" transform="translate(1)"/>
        <path fill="#FFFFFE" d="M59.62 52.436c-1.75 1.335-3.538 2.81-5.039 4.564h-.18c.073-1.018-.571-1.826-.357-2.808 6.22-6.388 15.908-8.916 24.737-5.968 1.823.631 3.575 1.405 5.219 2.528-7.15-3.722-17.91-3.054-24.38 1.684z" transform="translate(1)"/>
        <path stroke="#FFFFFE" stroke-linecap="square" stroke-width=".091" d="M59.62 52.436c-1.75 1.335-3.538 2.81-5.039 4.564h-.18c.073-1.018-.571-1.826-.357-2.808 6.22-6.388 15.908-8.916 24.737-5.968 1.823.631 3.575 1.405 5.219 2.528-7.15-3.722-17.91-3.054-24.38 1.684z" transform="translate(1)"/>
        <path fill="#FFFFFE" d="M176 54.5c0-5.246 4.254-9.5 9.5-9.5 5.247 0 9.5 4.254 9.5 9.5s-4.253 9.5-9.5 9.5c-5.246 0-9.5-4.254-9.5-9.5z" transform="translate(1)"/>
        <path stroke="#FFFFFE" stroke-width=".393" d="M176 54.5c0-5.246 4.254-9.5 9.5-9.5 5.247 0 9.5 4.254 9.5 9.5s-4.253 9.5-9.5 9.5c-5.246 0-9.5-4.254-9.5-9.5z" transform="translate(1)"/>
        <path fill="#4285F4" d="M179 55c0-3.866 3.134-7 7-7s7 3.134 7 7-3.134 7-7 7-7-3.134-7-7z" transform="translate(1)"/>
        <path stroke="#4285F4" stroke-width=".29" d="M179 55c0-3.866 3.134-7 7-7s7 3.134 7 7-3.134 7-7 7-7-3.134-7-7z" transform="translate(1)"/>
        <path fill="#FFFFFE" d="M66 70.5c0-5.246 4.253-9.5 9.5-9.5 5.246 0 9.5 4.254 9.5 9.5S80.746 80 75.5 80c-5.247 0-9.5-4.254-9.5-9.5z" transform="translate(1)"/>
        <path stroke="#FFFFFE" stroke-width=".393" d="M66 70.5c0-5.246 4.253-9.5 9.5-9.5 5.246 0 9.5 4.254 9.5 9.5S80.746 80 75.5 80c-5.247 0-9.5-4.254-9.5-9.5z" transform="translate(1)"/>
        <path fill="#4285F4" d="M68 71c0-3.865 3.134-7 7-7s7 3.135 7 7-3.134 7-7 7-7-3.135-7-7z" transform="translate(1)"/>
        <path stroke="#4285F4" stroke-width=".29" d="M68 71c0-3.865 3.134-7 7-7s7 3.135 7 7-3.134 7-7 7-7-3.135-7-7z" transform="translate(1)"/>
        <path fill="#FFFFFE" d="M18 54.5c0-5.248 4.254-9.5 9.5-9.5 5.247 0 9.5 4.252 9.5 9.5 0 5.246-4.253 9.5-9.5 9.5-5.246 0-9.5-4.254-9.5-9.5z" transform="translate(1)"/>
        <path stroke="#FFFFFE" stroke-width=".393" d="M18 54.5c0-5.248 4.254-9.5 9.5-9.5 5.247 0 9.5 4.252 9.5 9.5 0 5.246-4.253 9.5-9.5 9.5-5.246 0-9.5-4.254-9.5-9.5z" transform="translate(1)"/>
        <path fill="#4285F4" d="M20 54c0-3.865 3.134-7 7-7 3.865 0 7 3.135 7 7 0 3.867-3.135 7-7 7-3.866 0-7-3.133-7-7z" transform="translate(1)"/>
        <path stroke="#4285F4" stroke-width=".29" d="M20 54c0-3.865 3.134-7 7-7 3.865 0 7 3.135 7 7 0 3.867-3.135 7-7 7-3.866 0-7-3.133-7-7z" transform="translate(1)"/>
        <path stroke="#4285F4" stroke-linecap="round" stroke-linejoin="round" stroke-width="2.38" d="M119 50v48m23-48v48" transform="translate(1)"/>
        <path fill="#4285F4" d="M10.891 21.642c-.382 1.406-.813 3.21-1.553 4.402C8.096 28.031 6.184 28 4.345 28H2.194v-4.83h1.1c.477 0 1.099.062 1.433-.152.286-.184.454-.489.454-1.192 0-.765-1.816-6.603-2.08-7.52L1 7h5.065l1.983 9.11h.048L10.103 7H15l-4.109 14.642M21.5 23c-4.478 0-6.5-4.024-6.5-8.516S17.022 6 21.5 6c4.48 0 6.5 3.992 6.5 8.484S25.98 23 21.5 23zm0-12.509c-1.722 0-1.952 2.278-1.952 3.993 0 1.715.23 4.025 1.953 4.025 1.722 0 1.951-2.31 1.951-4.025 0-1.715-.229-3.993-1.951-3.993zM43 22.609h-4.598v-1.985h-.048C37.464 22.187 36.187 23 34.285 23 32.045 23 30 21.286 30 17.706V7h4.767v8.18c0 1.805.168 3.068 1.564 3.068.82 0 1.902-.511 1.902-3.007V7H43v15.609M64.444 18.976c0 1.216.046 2.59.556 3.618h-4.681c-.116-.437-.186-1.092-.163-1.528h-.046C59.136 22.563 57.723 23 56.24 23 53.925 23 52 21.502 52 18.103c0-5.116 4.449-4.93 6.79-5.522.625-.156 1.251-.405 1.251-1.435 0-1.09-.765-1.496-1.506-1.496-1.414 0-1.691.966-1.715 1.653h-4.264C52.696 6.748 55.894 6 58.743 6c5.747 0 5.7 3.213 5.7 6.332v6.644zm-4.403-3.65c-.556.375-1.182.593-1.808.78-1.019.311-1.552.655-1.552 1.746 0 .75.603 1.498 1.437 1.498 1.042 0 1.854-.841 1.923-2.527v-1.497zM67 22L72 22 72 0 67 0zM90.093 22L85.288 22 83.511 12.165 83.465 12.165 81.642 22 76.836 22 73 6 77.878 6 79.701 15.895 79.748 15.895 81.31 6 85.69 6 87.323 15.895 87.418 15.895 89.124 6 94 6 90.093 22M107.444 18.976c0 1.216.046 2.59.556 3.618h-4.681c-.116-.437-.186-1.092-.163-1.528h-.046c-.972 1.497-2.386 1.934-3.87 1.934-2.316 0-4.24-1.498-4.24-4.897 0-5.116 4.45-4.93 6.79-5.522.625-.156 1.251-.405 1.251-1.435 0-1.09-.765-1.496-1.506-1.496-1.414 0-1.691.966-1.715 1.653h-4.264C95.696 6.748 98.894 6 101.744 6c5.746 0 5.7 3.213 5.7 6.332v6.644zm-4.403-3.65c-.556.375-1.182.593-1.807.78-1.02.311-1.553.655-1.553 1.746 0 .75.602 1.498 1.437 1.498 1.043 0 1.854-.841 1.923-2.527v-1.497zM117.89 21.642c-.382 1.406-.812 3.21-1.552 4.402-1.242 1.987-3.154 1.956-4.993 1.956h-2.151v-4.83h1.1c.477 0 1.099.062 1.433-.152.286-.184.454-.489.454-1.192 0-.765-1.816-6.603-2.08-7.52L108 7h5.065l1.983 9.11h.048L117.102 7H122l-4.11 14.642M129.55 11.115c-.025-.53-.23-.935-.529-1.217-.276-.311-.643-.468-1.01-.468-.642 0-1.376.188-1.376 1.249 0 .467.275.685.528.842.756.437 2.477.561 3.992 1.248 1.514.655 2.845 1.87 2.845 4.523 0 4.491-3.166 5.708-6.058 5.708-2.798 0-5.873-1.53-5.942-5.708h4.336c.024.56.207 1.029.55 1.435.23.28.667.467 1.218.467.595 0 1.536-.312 1.536-1.247 0-.936-.39-1.217-2.5-1.716-3.464-.811-4.864-2.308-4.864-5.085 0-4.086 3.235-5.146 5.62-5.146 2.571 0 5.668.966 5.783 5.115h-4.13M159.094 22L154.287 22 152.512 12.165 152.464 12.165 150.641 22 145.835 22 142 6 146.877 6 148.7 15.895 148.747 15.895 150.31 6 154.69 6 156.324 15.895 156.419 15.895 158.123 6 163 6 159.094 22M164 4.283h5V0h-5v4.283zM164 22h5V6.01h-5V22zM171 6.391h4.598v1.985h.048C176.536 6.81 177.813 6 179.715 6c2.24 0 4.285 1.714 4.285 5.292V22h-4.767v-8.181c0-1.804-.169-3.067-1.564-3.067-.82 0-1.902.511-1.902 3.007V22H171V6.391M206.445 18.976c0 1.216.045 2.59.555 3.618h-4.68c-.116-.437-.186-1.092-.163-1.528h-.046c-.973 1.497-2.388 1.934-3.87 1.934-2.317 0-4.241-1.498-4.241-4.897 0-5.116 4.45-4.93 6.79-5.522.626-.156 1.25-.405 1.25-1.435 0-1.09-.763-1.496-1.505-1.496-1.413 0-1.69.966-1.715 1.653h-4.264C194.695 6.748 197.893 6 200.743 6c5.747 0 5.702 3.213 5.702 6.332v6.644zm-4.404-3.65c-.555.375-1.181.593-1.806.78-1.02.311-1.554.655-1.554 1.746 0 .75.602 1.498 1.437 1.498 1.042 0 1.854-.841 1.923-2.527v-1.497zM214.566 6.858H217v3.75h-2.434v5.567c0 1.475.252 2.12 1.4 2.12.345 0 .689-.029 1.034-.091v4.612c-.92 0-1.952.184-2.916.184-1.928 0-4.064-.399-4.064-4.765v-7.626H208v-3.75h2.02V2h4.546v4.858" transform="translate(1)"/>
    </g>
</svg>
