<svg xmlns="http://www.w3.org/2000/svg" width="250" height="160" viewBox="0 0 250 160">
    <g fill="none" fill-rule="evenodd">
        <circle cx="80" cy="80" r="80" fill="#34A853"/>
        <circle cx="170" cy="80" r="80" fill="#FBBD06"/>
        <path fill="#FFF" fill-rule="nonzero" d="M52.209 107.516c0-4.643-1.519-6.964-4.475-6.964-3.117 0-5.115.64-5.994 1.841l-.72-.72c-.719.48-1.918.72-3.756.72-.719 0-1.678-.32-2.717-1.04-1.039-.721-1.518-1.361-1.518-2.002 0-.72.799-2.481.799-3.202 0-.4-.08-.88-.24-1.44.08-.72.24-1.201.32-1.281.08.24.32.4.719.4 1.199 0 4.795-6.644 10.789-19.931l1.07-2.4c.514-1.13.797-1.711.848-1.763l.68-3.188.04-.174c.559-1.44 1.198-2.881 1.757-4.242.64-1.681.96-3.122.96-4.483 0-6.563-4.076-10.566-12.228-12.007-.4 0-1.439-.64-1.998-.64-1.359 0-3.037.24-4.955.8-2.158.56-3.596 1.201-4.475 1.922-1.199 1.04-2.398 2.721-3.517 4.962C22.56 54.926 22 56.847 22 58.368c0 2.321.959 3.442 2.957 3.442 1.199 0 3.916-.8 5.115-.8l.105-.672c.433-2.705.803-4.253 1.173-4.772.4-.56 1.04-1.12 2.078-1.76 1.04-.641 1.918-.961 2.558-.961.719 0 1.838.64 3.516 1.84l.527 1.115c.64 1.37 1.023 2.28 1.151 2.728l-14.545 36.34-1.062 2.614c-.756 1.877-1.343 3.39-1.735 4.51l-.72 1.362c0 .4.56 1.6.56 2 0 .401-.959 1.121-.959 1.842 0 .8.24 1.52.64 2.161.48.8 1.118 1.2 1.838 1.2.64 0 .799-.72 1.198-.72.64 0 1.919.72 2.478.72 1.199 0 3.836-.72 5.035-.72l.481.005c1.524.029 3.746.187 6.552.476l1.384.164c2.514.28 4.45.396 5.808.396.56 0 1.439-.4 2.478-1.2 1.038-.801 1.598-1.522 1.598-2.162zM25.037 95.109l-.88.48v.48l1.04-.48-.16-.48zm6.233.64v-.64h.96v.64h-.96zm7.832 10.246l-.48-.48.32-.4.56.56-.4.32zm-1.598.16c0 .24-.32.64-.879 1.2v-1.76l.8.4.079.16zm-3.916 1.28l-.32-.4.88-.88.32.4-.88.88zm-3.117-2.4c0 .64-.4 1.12-.4 1.2h-1.278c-.24 0-.4-.32-.4-.88 0-.64 1.2-.48 1.439-.72-1.039-1.281-1.838-2.082-2.557-2.482h.16c1.278-.08 3.036 1.52 3.036 2.882zM81.783 85.2l.003-.008c.186-.186.31-.248.372-.248-.102.061-.237.156-.375.256zm0 0l-.5.36c-.06.042-.102.066-.116.066-.186-.186-.433-.186-.743-.124.39.391.63.882.719 1.565l.024.234c.054.489.109 1.072.08 1.792l-.052 1.125c-.028.753-.028 1.116-.028 1.116-.31.434-.433.682-.371.868.185.31.247.62.31 1.055v1.054c-.063.435-.063.745-.063.807v5.149c.062 1.675.31 3.04.805 4.218l.582.712c.301.363.572.669.843.901.495 1.055.99 1.8 1.548 2.171l.227.128c.45.241 1.347.686 2.622 1.3l1.092.472c.894.38 1.435.582 1.572.582 2.601 0 4.707-.372 6.317-1.117.743-.372 1.549-1.24 2.478-2.543l1.043-1.5c.66-.936 1.118-1.553 1.372-1.85v-.372c0-.062.248-.683.248-1.18l-.003-.642c-.005-.314-.02-.519-.059-.598-.681-1.303-1.3-1.985-1.92-1.985l-.991.006c-1.45.018-2.474.078-3.035.18-.681.186-1.486 1.737-2.23 1.737.062.124.062.248.062.434 0 .993-.557 1.8-1.61 2.42-.372.186-.93.31-1.672.31-.682 0-1.673-.372-2.911-1.055-.558-2.295-.805-4.342-.805-6.141 0-1.551.185-2.854.557-3.908-.186-.683-.248-1.551-.31-2.544-.055-.614-.061-1.43-.016-2.445l.048-1.084c.03-.829.03-1.39.03-1.682l-.012-.622c-.04-2.401.017-3.749.074-4.093l-.1-1.197c-.078-.861-.2-2.028-.395-3.517l-.17-1.259c-.186-1.42-.264-2.18-.264-2.277 0-1.179.186-2.234.558-3.04.31-.682 1.362-1.427 1.672-1.365.433-.682.805-1.179 1.115-1.489l.495.497c.186-.187.496-.249.805-.249.46 0 1.188.321 2.132.963l.222.154c1.3.869 1.982 1.737 1.982 2.544 0 .186-.062.372-.124.558 1.486.744 2.601 1.116 3.283 1.116 1.424 0 3.096-.992 3.096-2.543 0-1.489-.31-2.668-.929-3.536l-.386-.536c-.749-1.026-1.348-1.786-1.72-2.318-.805-.186-1.672-.682-2.663-1.426-.929-.745-1.672-1.117-2.23-1.117l-.805.005c-1.292.016-2.333.067-3.158.119-.558.186-1.053.31-1.425.248-1.548.062-3.097.993-4.769 2.73-.929.992-1.61 2.047-1.92 3.163-.557 2.048-.867 3.785-.867 5.087 0 .683.805 1.18.805 1.613 0 .31-.186.683-.495 1.179.123-.062.371.062.805.496v1.49c-.496.433-.743.992-.805 1.55 0 .496 0 .993.062 1.489.185.248.247.434.31.496-.187.93-.187 1.8-.125 2.482.558-.062.867 0 1.053.186-.31.31-1.053.682-1.053.868.372.372.434.62.248.807.31-.124.62-.186 1.053-.186.372 0 .557.31.557.868-.31.186-.805.745-.867.745-.182-.305-.245-.55-.189-.675zm13.753-18.68v-.993h.496v.992h-.496zm-11.582 16.5v-.495h1.239v.496h-1.239zm.991 2.11c-.186.186-.743 1.055-.929 1.24 0-.185-.62-1.054-.62-1.302.31 0 .62.186.93.496.31-.31.495-.434.62-.434zm-1.858 1.737c-.433 0-.743.124-.929.31 0-.434-.062-.62-.248-.62.558 0 .991.124 1.177.31zm-.371 3.102l-.682-.31.124-.435.681.373-.123.372zm.371 4.777l-.371-.186.371-.683.372.124-.372.745zm22.92-4.974c.27-.033.43.095.43.383 0 .062-.124.434-.124.496v.124l.372.268c.812.598 1.239 1.012 1.239 1.283l.002.21c.004.114.018.183.06.224l-.186.125c-.496-.559-.867-.931-1.177-1.117-.681.682-.991 1.365-.991 2.11 0 .495.99 1.426 1.177 1.674-.186.186-.31.372-.248.62v.062c.31-.186.62-.31.929-.31.186 0 .372.062.434.186l-.502.462c-.396.37-.737.7-1.047.965l.31.372c-.31.373-.62.62-.93.745-.061.186-.061.372-.061.62.557.124.867.683.867 1.613 0 .434-.124.807-.434 1.117.186.496.372.868.558 1.116-.186.187-.31.497-.31.931 0 .372.062.682.248.93.681-.248 1.363-.806 1.982-1.674l.681.558c-.248-.434-.371-.807-.371-1.117l.062-.31c.31.124.619.248.929.31.185.062.247.559.247 1.427 0 .062-.062.124-.186.248-.433-.062-.68-.186-.867-.248l-.066.207c-.05.151-.12.33-.243.538.557.186.867.496.867 1.054 0 .248-.062.372-.186.372-.038 0-.053 0-.073-.014l-.004-.019c.093.07.139.191.139.406 0 .248-.434.992-.434 1.488 0 .559.496 1.117 1.487 1.551l.557-.558c.682 1.117 2.478 1.675 5.327 1.675.99 0 1.982-.31 2.973-.93-.372-.31-.743-.87-1.115-1.676l.186-.124.449.171c.114.047.146.07.09.076l-.036.001c.305-.003.488-.188.488-.496 0-.062 0-.186-.062-.248v-.31c-.434-.558-.867-.93-1.239-1.24-.186.247-.805.371-1.734.31h-.31c-.31.868-.495 1.55-.62 1.984-.309 0-1.3-.31-1.795-.31-.186 0-.434-.31-.62-.93l-.25-.639c-.162-.4-.264-.621-.307-.664-.31.434-.496.806-.558 1.117l-.263-.42c-.077-.123-.14-.232-.17-.325.186-.434.495-.682.867-.682h.186v-1.055l-.372-.31c-.31.186-.495.372-.681.434-.372.31-.62.745-.681 1.179-.062.558-.186.993-.31 1.179l-.459-.635c-.094-.134-.17-.252-.222-.358.495-.31.743-.868.743-1.675 0-.186-.062-.372-.124-.558.31-.434.495-.869.495-1.179l-.003-.372c-.012-.598-.049-1.376-.111-2.333l-.147-2.108c-.074-1.137-.11-2.025-.11-2.693 0-.683.495-1.8.557-2.296l.046-.825c.043-.861.078-1.827.078-2.897v-2.667l-.026-.568c-.036-.91-.036-1.634-.036-2.1 0-.558-.248-2.047-.248-2.73 0-.93.248-1.488.806-1.736-.496-.93-.744-3.474-.744-7.693 0-1.55.496-3.04 1.425-4.342 1.053-1.49 2.353-2.234 3.84-2.234.248 0 .743.249 1.424.745.496.372.991.744 1.487 1.055.62.682 1.053 1.302 1.3 1.737-.31.372-.495.806-.495 1.24.372 0 .62.062.805.248v30.274c-.31.434-.495 1.054-.495 1.923v.806c.186-.31.495-.434.805-.434.186 0 .372.062.557.124l-.247.93c-.186-.123-.372-.185-.558-.185-.681 0-1.61 1.613-2.353 1.675.805.248 1.486.372 1.92.434 0-.31-.124-.683-.31-1.24.062-.187.186-.373.248-.435l1.018 1.58c.125.187.196.281.22.281-.31.248-.68.496-1.052.744-.434.373-.62.745-.62 1.055 0 .434.372 1.365.372 1.675.433-.93 1.486-.993 2.415-1.179 0-.434-.371-.868-1.115-1.24.434-.31.806-.497.991-.683l.312.31c.17.166.267.248.308.248.31-.62.681-1.054 1.053-1.364v.372c0 .744-.805 1.799-.867 2.11.185-.311.867-1.055 2.105-2.358.682-.745 1.053-1.985 1.053-3.784 0-.683-.124-2.42-.124-3.102l.005-.499c.025-1.392.147-3.285.367-5.767l.097-.903c.239-2.336.337-4.094.337-5.362l-.005-1.175c-.004-.448-.013-.954-.031-1.524l-.05-1.399c-.038-1.2-.038-2.096-.038-2.726l.008-.415c.027-.876.116-2.305.116-2.935 0-.683-.248-2.358-.248-3.102 0-3.226-.434-5.893-1.239-7.94-.31-.683-.867-1.365-1.796-2.172-.743-.558-1.486-1.179-2.292-1.737l-2.285-.461c-1.02-.201-1.852-.358-2.484-.47 0 .249-.186.497-.495.807l-.743-.806c-1.549-.062-3.035.248-4.46.806-1.92.682-2.787 1.675-2.725 2.978v.248c-.681.558-1.239.93-1.672 1.117-.372 1.426-.558 2.543-.496 3.412v.558l-.557 1.116.186.31c-.372.435-.558 1.117-.558 1.986 0 .744.31 2.791.31 3.598 0 .62-.062 1.179-.248 1.675h-.557c.619.062 1.053.372 1.3.868-.681.559-1.176 1.055-1.424 1.427l.302.965c.278.904.487 1.625.627 2.137-.062.496-.062.868 0 1.179.31.248.557.434.743.496-.186.186-.248.31-.248.434v.062c-.433.124-.619.372-.557.807v.558h.99c.31-.372.496-.682.682-.869-.186.807-.495 1.18-.99 1.18-.125 0-.187 0-.249.061l.148.153c.081.088.162.184.162.22 0 .061-.062.123-.186.123-.247 0-.681-.248-.867-.248l.312.387c.387.487.654.854.803 1.102l-.193.34c-.117.207-.21.381-.265.533l-.035.11zm11.393 15.458l-.31.248.434.434.31-.248-.434-.434zm-1.672.372c-.558.062-.93.31-1.115.744l-.14.316c-.21.482-.304.75-.356.801.31-.31.558-.62.682-.806.185.186.247.372.247.62v.248c.434-.496.682-1.117.682-1.923zm-8.176.992l-.248.31.682.683.247-.248-.681-.745zm18.085-40.075c-.31.62-.495 1.117-.557 1.551-.186-.434-.557-.868-1.115-1.178v-.062c0-.125.248-.62.681-1.551.186.558.496.992.991 1.24zm-.371 3.785V69.25h.433v1.055h-.433zm-8.61-8.313l-.371-.434.248-.31.433.434-.31.31zm8.362 10.236h-1.363l.313-.396c.299-.372.555-.674.74-.907l.31 1.303zm.31 4.528c-.434.062-.682.186-.682.372 0-.248.186-.682.186-.868 0-.186-.124-.31-.31-.31-.31 0-.68.186-1.052.558l.35-.491c.167-.231.33-.44.517-.626.433.435.805.931.99 1.365zm.31 1.675c-.434 0-.682.186-.744.497 0-.559-.124-1.055-.31-1.49l1.053.993zm-.868 1.8l-.371-.187.371-.682.372.124-.372.744zm.062 1.178v-.372l.682-.372.123.372-.805.372zm-2.54-1.117l-.37-.434.247-.31.433.434-.31.31zm.558.807l-.433-.186.371-.745.434.186-.372.745zM108.915 98.53l.68.744-.442.001c-.378.003-.564.015-.61.061.062-.372.186-.62.372-.806zm-.496 2.481l-.31-.682.372-.124.372.806h-.434zm1.177.807c-.248 0-.867-.186-1.115-.186-.495 0-.743.124-.681.372-.062-.062-.186-.496-.186-.683 0-.062.062-.186.124-.248h1.3l.558.745zm-2.478-.93v-.497h.744v.496h-.744zm6.442 8.126v-.372l.681-.373.186.373-.867.372zm-1.115-.124c.062-.124.124-.31.124-.497 0-.496-.124-.992-.372-1.426.558.558.93.992 1.053 1.302l-.805.62zm39.33-1.365c0-.806-.186-1.799-.62-2.978h-.163c-.19-.004-.456-.015-.828-.062h-.99c-.249 0-.806.062-1.611.186l-1.425.12c-.051.003-.093.004-.124.004l-.2-.008c-.34-.021-.964-.09-1.905-.24l-1.526-.254c-.228-.036-.382-.056-.456-.056-.31 0-.558.124-.806.31l-.228.18c-.244.183-.405.268-.453.317-.557-1.055-1.053-1.613-1.548-1.613-.434 0-.062.248-.558.248-.495 0-.371-.683-.557-.745l3.035-40.199c0-.186-.31-.868-.867-2.047-.806 0-2.664-.558-3.097-.558-.558 0-.991.186-1.363.558-.186-.186-1.115-.248-2.787-.186.248.558.31 1.24.248 2.047l-.064.625c-.136 1.398-.184 2.368-.184 2.911l.026.683c.025.76.033 1.399.035 1.926v.826c-.012.797-.079 2.96-.247 6.49l-.072 1.407c-.108 2.249-.158 4.032-.171 5.395l-.004.767c0 2.544.061 4.033.123 4.405 0 .633-.076 1.497-.199 2.65l-.216 1.975c-.097.926-.136 1.463-.141 1.613l-.001 6.975c.186 0 .31.062.495.186-.185.187-.31.249-.495.187l-.003.328c-.003.237-.01.508-.02.814l-.199 5.878c-.016.53-.026.982-.026 1.354.31 0 1.673.559 2.106.559.558 0 .93-.807 1.239-.807.433 0 1.796.559 2.23.559.433 0-.248-.559.247-.559.186 0 .744.124 1.673.434l.592.152c.6.147.999.22 1.142.22.495 0 1.362-.558 1.796-.558.186 0 .62.187 1.177.497.557.372.929.558 1.115.558l.004-.529c.005-.198.02-.302.057-.34.248-.186.496-.31.682-.434.495.31 1.92.683 2.477 1.117.186-.372.434-.558.743-.558.186 0 .434.062.868.248.99 0 2.043-1.49 2.043-2.978zm-9.848.062v-.434h1.3v.434h-1.3zm-7.68-5.335l-.372-.62.372-.187.371.807h-.371zm.68 2.047l-.866-.31v-.372l1.053.31-.186.372zm20.69-14.527c.27-.033.431.095.431.383 0 .062-.124.434-.124.496v.124l.372.268c.812.598 1.239 1.012 1.239 1.283l.002.21c.004.114.018.183.06.224l-.186.125c-.496-.559-.867-.931-1.177-1.117-.681.682-.991 1.365-.991 2.11 0 .495.99 1.426 1.177 1.674-.186.186-.31.372-.248.62v.062c.31-.186.62-.31.929-.31.186 0 .372.062.434.186l-.502.462c-.396.37-.737.7-1.047.965l.31.372c-.31.373-.62.62-.93.745-.061.186-.061.372-.061.62.557.124.867.683.867 1.613 0 .434-.124.807-.434 1.117.186.496.372.868.558 1.116-.186.187-.31.497-.31.931 0 .372.062.682.248.93.681-.248 1.362-.806 1.982-1.674l.681.558c-.248-.434-.371-.807-.371-1.117l.061-.31c.31.124.62.248.93.31.185.062.247.559.247 1.427 0 .062-.062.124-.186.248-.433-.062-.68-.186-.867-.248l-.066.207c-.05.151-.12.33-.243.538.557.186.867.496.867 1.054 0 .248-.062.372-.186.372-.038 0-.053 0-.073-.014l-.004-.019c.093.07.139.191.139.406 0 .248-.434.992-.434 1.488 0 .559.496 1.117 1.487 1.551l.557-.558c.682 1.117 2.478 1.675 5.327 1.675.99 0 1.982-.31 2.973-.93-.372-.31-.744-.87-1.115-1.676l.186-.124.449.171c.114.047.146.07.09.076l-.036.001c.305-.003.488-.188.488-.496 0-.062 0-.186-.062-.248v-.31c-.434-.558-.867-.93-1.239-1.24-.186.247-.805.371-1.734.31h-.31c-.31.868-.495 1.55-.62 1.984-.309 0-1.3-.31-1.795-.31-.186 0-.434-.31-.62-.93l-.25-.639c-.162-.4-.264-.621-.307-.664-.31.434-.496.806-.558 1.117l-.263-.42c-.077-.123-.14-.232-.17-.325.186-.434.495-.682.867-.682h.186v-1.055l-.372-.31c-.31.186-.495.372-.681.434-.372.31-.62.745-.682 1.179-.061.558-.185.993-.31 1.179l-.458-.635c-.094-.134-.17-.252-.222-.358.495-.31.743-.868.743-1.675 0-.186-.062-.372-.124-.558.31-.434.495-.869.495-1.179l-.003-.372c-.012-.598-.049-1.376-.111-2.333l-.147-2.108c-.074-1.137-.11-2.025-.11-2.693 0-.683.495-1.8.557-2.296l.046-.825c.043-.861.078-1.827.078-2.897v-2.667l-.026-.568c-.036-.91-.036-1.634-.036-2.1 0-.558-.248-2.047-.248-2.73 0-.93.248-1.488.806-1.736-.496-.93-.744-3.474-.744-7.693 0-1.55.496-3.04 1.425-4.342 1.053-1.49 2.353-2.234 3.84-2.234.248 0 .743.249 1.424.745.496.372.991.744 1.487 1.055.62.682 1.053 1.302 1.3 1.737-.31.372-.495.806-.495 1.24.372 0 .62.062.805.248v30.274c-.31.434-.495 1.054-.495 1.923v.806c.186-.31.495-.434.805-.434.186 0 .372.062.557.124l-.247.93c-.186-.123-.372-.185-.558-.185-.681 0-1.61 1.613-2.353 1.675.805.248 1.486.372 1.92.434 0-.31-.124-.683-.31-1.24.062-.187.186-.373.248-.435l1.018 1.58c.125.187.196.281.22.281-.31.248-.68.496-1.053.744-.433.373-.619.745-.619 1.055 0 .434.372 1.365.372 1.675.433-.93 1.486-.993 2.415-1.179 0-.434-.371-.868-1.115-1.24.434-.31.806-.497.991-.683l.312.31c.17.166.266.248.308.248.31-.62.681-1.054 1.053-1.364v.372c0 .744-.806 1.799-.867 2.11.185-.311.867-1.055 2.105-2.358.682-.745 1.053-1.985 1.053-3.784 0-.683-.124-2.42-.124-3.102l.005-.499c.024-1.392.147-3.285.367-5.767l.096-.903c.24-2.336.338-4.094.338-5.362l-.005-1.175c-.004-.448-.013-.954-.031-1.524l-.05-1.399c-.038-1.2-.038-2.096-.038-2.726l.008-.415c.027-.876.116-2.305.116-2.935 0-.683-.248-2.358-.248-3.102 0-3.226-.434-5.893-1.239-7.94-.31-.683-.867-1.365-1.796-2.172-.743-.558-1.486-1.179-2.292-1.737l-2.285-.461c-1.02-.201-1.852-.358-2.484-.47 0 .249-.186.497-.495.807l-.743-.806c-1.549-.062-3.035.248-4.46.806-1.92.682-2.787 1.675-2.725 2.978v.248c-.681.558-1.239.93-1.672 1.117-.372 1.426-.558 2.543-.496 3.412v.558l-.557 1.116.186.31c-.372.435-.558 1.117-.558 1.986 0 .744.31 2.791.31 3.598 0 .62-.062 1.179-.248 1.675h-.557c.619.062 1.053.372 1.3.868-.681.559-1.177 1.055-1.424 1.427l.302.965c.278.904.487 1.625.627 2.137-.062.496-.062.868 0 1.179.31.248.557.434.743.496-.186.186-.248.31-.248.434v.062c-.433.124-.62.372-.557.807v.558h.99c.31-.372.496-.682.682-.869-.186.807-.495 1.18-.99 1.18-.125 0-.187 0-.249.061l.148.153c.081.088.162.184.162.22 0 .061-.062.123-.186.123-.247 0-.681-.248-.867-.248l.312.387c.387.487.654.854.803 1.102l-.193.34c-.117.207-.21.381-.265.533l-.035.11zm11.394 15.458l-.31.248.434.434.31-.248-.434-.434zm-1.672.372c-.558.062-.93.31-1.115.744l-.14.316c-.21.482-.304.75-.356.801.31-.31.558-.62.681-.806.186.186.248.372.248.62v.248c.434-.496.682-1.117.682-1.923zm-8.176.992l-.248.31.681.683.248-.248-.681-.745zm18.085-40.075c-.31.62-.495 1.117-.557 1.551-.186-.434-.558-.868-1.115-1.178v-.062c0-.125.248-.62.681-1.551.186.558.496.992.991 1.24zm-.371 3.785V69.25h.433v1.055h-.433zm-8.61-8.313l-.371-.434.248-.31.433.434-.31.31zm8.362 10.236h-1.363l.313-.396c.299-.372.554-.674.74-.907l.31 1.303zm.31 4.528c-.434.062-.682.186-.682.372 0-.248.186-.682.186-.868 0-.186-.124-.31-.31-.31-.31 0-.68.186-1.052.558l.35-.491c.167-.231.33-.44.517-.626.433.435.805.931.99 1.365zm.31 1.675c-.434 0-.682.186-.744.497 0-.559-.124-1.055-.31-1.49l1.053.993zm-.868 1.8l-.371-.187.371-.682.372.124-.372.744zm.062 1.178v-.372l.681-.372.124.372-.805.372zm-2.54-1.117l-.37-.434.247-.31.433.434-.31.31zm.558.807l-.433-.186.371-.745.434.186-.372.745zM158.526 98.53l.68.744-.442.001c-.378.003-.564.015-.61.061.062-.372.186-.62.372-.806zm-.496 2.481l-.31-.682.372-.124.372.806h-.434zm1.177.807c-.248 0-.867-.186-1.115-.186-.496 0-.743.124-.681.372-.062-.062-.186-.496-.186-.683 0-.062.062-.186.124-.248h1.3l.558.745zm-2.478-.93v-.497h.744v.496h-.744zm6.442 8.126v-.372l.681-.373.186.373-.867.372zm-1.115-.124c.062-.124.124-.31.124-.497 0-.496-.124-.992-.372-1.426.558.558.93.992 1.053 1.302l-.805.62zm42.86-1.923l-3.159-8.5-.087-.562c-.078-.464-.202-1.112-.408-1.98-.186-.931-.31-1.676-.248-2.234l-.793-2.545c-.909-2.95-1.388-4.655-1.437-5.147.31-.31.496-.497.681-.559l.372-.67c1.43-2.617 2.177-4.44 2.292-5.471.31-2.42.371-4.901.31-7.32-.186-.249-.31-.435-.372-.559-.062-.434.062-1.24.247-2.543.124-.186.248-.186.434 0l-.524-.885c-.98-1.68-1.564-2.82-1.83-3.458-.867-.682-1.61-1.365-2.23-2.171l-.88-.264c-.633-.195-1.145-.369-1.535-.542-.99-.125-1.796-.187-2.415-.187l-.056-.116c-.11-.21-.378-.628-.75-.628-.557 0-1.486.806-1.92.806l-.095-.005c-.285-.027-.996-.15-2.134-.367l-.644-.155c-.854-.197-1.373-.279-1.524-.279-.434 0-.99.806-1.3.806-.434 0-.93-.248-1.363-.248-1.796 0-2.663 1.365-2.663 4.033 0 .186.123.496.433.93l.078 1.761c.075 1.777.122 3.136.17 4.133.106 1.754.167 3.555.182 5.44l.007 1.827c.006.724.017 1.546.032 2.467l.196 11.28c.01.762.016 1.428.016 2 0 .683-.185 1.428-.495 2.11.186.124.31.248.372.372l.226 5.729c.065 1.533.113 2.539.145 3.018-.186.435-.31.807-.433 1.055l.557.868c.248 1.117.495 1.737.681 1.861.93.62 1.982.931 3.16.931 1.176 0 2.848-1.24 3.034-2.047-.186-.31-.248-.869-.062-1.8l.187-.27c.196-.295.308-.515.308-.66-.743-.558-1.114-1.427-1.114-2.481 0-.138.019-.333.046-.597l.078-.768c.061-.496.061-.868 0-1.117-.434-2.977-.62-5.52-.62-7.568 0-.682.496-1.179.496-1.861 0-.434-.124-1.055-.31-1.861.124-.558.372-1.055.681-1.365l-.1-.356c-.051-.188-.065-.285-.024-.326.558 0 1.797-.497 2.23-.497 1.177 0 2.106.869 2.787 2.606.31.744.62 2.171.991 4.218l.095.37c.19.727.477 1.72.896 2.98l.377 1.022c.294.812.428 1.228.428 1.274 0 .93-.185 1.799-.495 2.73.248 0 .557-.683.62-.745l.433.372-.514.715-.106.153.319 1.155c.356 1.32.549 2.176.549 2.568 0 .496-.186.62-.372.682.062.31.248.744.557 1.303.434.682.93 1.054 1.425 1.054.186 0 .495-.062.805-.186.248-.062.434-.062.62 0 .495.31.867.497 1.114.497 1.549 0 3.345-1.18 3.345-3.226zm-7.185-28.785l-2.281 2.208c-.251.24-.42.395-.506.46-1.053.806-1.982 1.24-2.849 1.24-.991 0-2.106-.248-3.345-.682l-.312-.435c-.342-.483-.61-.875-.802-1.116-.558-1.737-.868-3.35-.868-4.777l.005-.758c.024-1.948.14-3.308.305-4.08.372-1.365.93-2.234 1.61-2.544 1.425-.558 2.664-.868 3.655-.868 1.3 0 1.053.806 1.486.806.434 0 .062-.31.558-.31.557 0 1.114.558 1.672 1.613.31.744.681 1.489.99 2.233.187.558.063.93-.37 1.179-.063.186.061.496.37.992l-.113.634c-.12.705-.196 1.29-.196 1.724 0 .992.31 1.799.991 2.481zm.681 23.636v-.683h.434v.683h-.434zm-.929.868l-.433-.124.372-.682.371.124-.31.682zm20.558-20.404c-.313.31-1.11.74-1.11.925.558.31.991.496 1.301.558l.248.186c-.248.435-.248 1.551-.681 1.986-.186.062-.31.062-.434.062-.186-.187-.248-.497-.248-.807l-.433 1.551 1.55 1.703c1.65 1.8 2.929 3.156 3.838 4.066.558.807.867 1.427 1.053 1.861l.044.885c.05.915.109 1.602.204 2.031-.124.248-.372.558-.681.869.433.434.619.93.619 1.55 0 .683-.248 1.49-.805 2.42-.429.736-.918 1.472-1.348 2.148.07.053.109.125.109.21 0 .185-.124.434-.434.62-.062 0-.371-.807-.867-.807-.495 0-.929.558-1.362.558-.434 0-1.239-.558-1.673-.558-.433 0-1.052-.62-1.858-1.86l-.272-.666c-.475-1.18-.81-2.136-.966-2.871-.682-.496-1.301-.868-1.858-1.055-.186-.062-.62-.124-1.425-.124-2.663 0-3.159.869-3.159 3.412 0 2.668.93 4.901 2.787 6.638.991.93 1.858 1.613 2.54 1.923 1.239.559 2.415.869 3.53.869l.208-.007c.298-.015.815-.052 1.553-.093l2.552-.141c.09-.005.159-.007.208-.007.558 0 1.177-.745 1.24-.745h1.238l.361-.012c.942-.02 1.213.064 1.435-.546l.14-.427c.03-.1.046-.162.046-.194.186.125.495.187.99.187l-.204-.33c-.076-.117-.131-.193-.167-.229l.153-.16c.257-.277.63-.72 1.086-1.329.434-.62.867-.992 1.177-1.178.186-2.234.557-4.095 1.115-5.521-.248-.062-.372-.249-.372-.497 0-.31.496-1.365.496-1.613l-.077-.708c-.04-.33-.095-.777-.171-1.339-.186-1.179-.186-2.047-.124-2.73l-.527-.666c-.139-.17-.247-.295-.34-.388.186-.434.186-.744 0-1.055-1.053-1.675-2.725-3.908-5.017-6.7l-.699-.622c-1.472-1.298-2.67-2.277-3.637-2.976 0 .187-.062.373-.247.559-.062-.124-.124-.372-.124-.807l-2.765 1.35c-.362.174-.555.263-.58.263-.124-.124-.186-.31-.186-.62.062-.062.186-.124.248-.062l.227.07c.118.032.244.054.393.054.495 0 1.61-1.365 1.858-1.551-.558 0-.867-.062-1.053-.186.371-.372.495-.682.433-.93-.433-.435-.867-1.055-1.362-1.924-.496-.744-.744-1.737-.744-3.04 0-.496.372-1.736.372-2.047-.124-1.116.124-2.233.805-3.35.805-1.302 1.92-1.985 3.345-1.985 1.238 0 2.291.745 3.097 2.296.68 1.302.99 2.481.929 3.598.185.31.185.682.68.682.558 0 2.355.248 2.788.248l.409-.006c.566-.016.926-.067 1.078-.118.371-.124.867-.496 1.486-1.054v-5.336c-.434-.062-.929-.558-1.486-1.55-.248-.559-.496-1.055-.806-1.613-.31-.373-1.362-1.055-3.096-2.11l-1.067-.641c-1.077-.638-1.7-.972-1.844-.972-.434 0-.062.559-.558.559-.433 0-.557-.124-.433-.434l-.297-.037c-.442-.048-1.066-.088-1.81-.088-.99 0-2.167.249-3.468.745-1.3.496-2.167 1.055-2.725 1.613-.681.682-.929 1.489-.867 2.42 0 .123-.248.185-.743.185-.496 0-.867.62-.93.62l.257.21c.235.186.41.303.549.349l-.312.257c-.296.235-.54.41-.68.55l-.162.477c-.235.67-.428 1.141-.58 1.446-.124.62-.186 1.488-.186 2.605 0 6.886 1.734 11.104 5.264 12.78.682.061 1.177.061 1.549 0-.186-.187-.124-.497.248-.931-.372 0-.62-.062-.806-.186l.744-.745c.433.249 1.053.186 1.734-.124-.434 0-.681-.062-.681-.248 0-.062.062-.248.247-.434.124-.062.248-.186.31-.248l.446.814c.112.198.186.32.218.358l.012.012zm3.117 21.994l-.015.023c-.1-.1-.18-.146-.245-.158l.095.06c.066.017.122.043.165.075zm-.165-.075l-.095-.06c-.055-.01-.098.005-.127.034.084 0 .158.009.222.026l-.095-.06.095.06zm-8.955-38.24c-.185 0-1.176.558-1.362.558.433-.434.62-.806.62-1.24l.742.682z"/>
    </g>
</svg>
