<svg xmlns="http://www.w3.org/2000/svg" width="24" height="24" viewBox="0 0 24 24">
    <path fill="#002E6D" fill-rule="evenodd" d="M11.972 2c4.352 0 7.931 3.627 8.028 8.137 0 .588 0 1.079-.097 1.569-.096.098-.096.196-.096.294-.194.49-.387 1.078-.58 1.569-.775 1.862-2.612 4.902-6.385 8.137-.29.196-.483.294-.87.294s-.677-.098-.87-.294c-3.87-3.333-5.611-6.275-6.385-8.235-.193-.49-.387-.98-.483-1.569-.097-.196-.097-.294-.097-.294-.097-.686-.194-1.47-.097-2.255.387-4.02 3.676-7.255 7.641-7.353zm0 1.373h-.194C8.49 3.47 5.781 6.118 5.394 9.549c-.096.686 0 1.275.097 1.96v.099c.097.49.29.98.484 1.372.773 1.765 2.418 4.608 5.997 7.647 3.579-3.039 5.223-5.882 5.997-7.647.193-.49.387-.882.483-1.372v-.196c.097-.392.097-.883.097-1.275 0-1.862-.677-3.627-2.031-4.902-1.258-1.176-2.805-1.862-4.546-1.862zm.056 2.549c2.322 0 4.16 1.96 4.16 4.313 0 2.353-1.838 4.314-4.16 4.314-2.321 0-4.159-1.96-4.159-4.314 0-2.353 1.838-4.313 4.16-4.313zm0 1.372c-1.547 0-2.805 1.373-2.805 2.941 0 1.667 1.258 2.941 2.805 2.941 1.548 0 2.805-1.372 2.805-2.94 0-1.667-1.257-2.942-2.805-2.942z"/>
</svg>
