<svg xmlns="http://www.w3.org/2000/svg" width="24" height="24" viewBox="0 0 24 24">
    <path fill="#002E6D" fill-rule="evenodd" d="M21.516 5c.956 0 1.734.777 1.734 1.732v11.786c0 .955-.778 1.732-1.734 1.732H2.735C1.779 20.25 1 19.473 1 18.518V6.732C1 5.777 1.779 5 2.735 5zm.41 4.804H2.324v8.714c0 .227.185.41.412.41h18.78c.227 0 .412-.183.412-.41V9.804zm-13.96 5.953c.39 0 .705.315.705.704 0 .389-.316.705-.705.705H5.18c-.388 0-.704-.316-.704-.705 0-.39.316-.704.704-.704zm4.177-2.077c.388 0 .704.316.704.705 0 .389-.316.704-.704.704H5.181c-.389 0-.705-.315-.705-.704 0-.39.316-.705.705-.705zm-.068-2.101c.39 0 .705.316.705.704 0 .389-.316.705-.705.705H5.113c-.389 0-.705-.316-.705-.705 0-.388.316-.704.705-.704zm9.44-5.257H2.736c-.227 0-.412.184-.412.41v1.75h19.604v-1.75c0-.226-.185-.41-.411-.41z"/>
</svg>
