<svg xmlns="http://www.w3.org/2000/svg" width="24" height="24" viewBox="0 0 24 24">
    <path fill="#002E6D" fill-rule="evenodd" d="M12 1c1.111 0 2.111.547 2.444 1.532H16c.444 0 .778.22.778.548v.766h1.889c1.222 0 2.222.985 2.333 2.189V20.92c0 1.095-1 2.08-2.333 2.08H5.333C4.111 23 3 22.124 3 20.92V6.035c0-1.204 1.111-2.19 2.333-2.19h2V3.08c0-.438.334-.548.667-.548h1.556C9.889 1.547 10.889 1 12 1zM7.222 5.16H5.333c-.555 0-1.11.437-1.11.984V21.03c0 .547.555.875 1.11.875h13.223c.555 0 1.11-.328 1.11-.875h.112V6.144c-.111-.547-.556-.985-1.111-.985h-2.111v1.095c-.112.438-.445.656-.778.656h-7.89l-.099-.006c-.297-.038-.567-.245-.567-.54V5.158zm1.89 11.71c.221-.218.666-.218.888 0 .111.11.222.22.222.438 0 .22-.11.329-.222.438l-2.111 1.97c-.111.11-.222.22-.445.22l-.102-.01c-.157-.027-.25-.118-.342-.21l-1.111-1.094c-.222-.219-.222-.657 0-.876.222-.219.667-.219.889 0l.666.657zm8.555 1.095c.333 0 .666.22.666.657 0 .328-.333.657-.666.657h-6.223c-.333 0-.666-.329-.666-.657s.333-.657.666-.657zM9.11 12.711c.222-.218.667-.218.889 0 .111.11.222.22.222.438 0 .22-.11.329-.222.438l-2.111 1.97c-.111.11-.222.22-.445.22l-.102-.01c-.157-.027-.25-.119-.342-.21l-1.111-1.094c-.222-.22-.222-.657 0-.876.222-.219.667-.219.889 0l.666.657zm8.556 1.095c.333 0 .666.328.666.657 0 .328-.333.656-.666.656h-6.223c-.333 0-.666-.328-.666-.656 0-.329.333-.657.666-.657zM9.11 8.552c.222-.219.667-.219.889 0 .111.11.222.11.222.329 0 .219-.11.328-.222.437l-2.111 1.97c-.111.11-.222.22-.445.22l-.102-.01c-.157-.027-.25-.118-.342-.21l-1.111-1.094c-.222-.219-.222-.657 0-.876.222-.218.667-.218.889 0l.666.767zm8.556 1.095c.333 0 .666.328.666.656 0 .329-.333.657-.666.657h-6.223c-.333 0-.666-.328-.666-.657 0-.328.333-.656.666-.656zm-5.89-7.443c-.666 0-1.221.438-1.333 1.095 0 .328-.222.547-.555.547H8.556v1.86h6.666v-1.86h-1.444c-.334 0-.556-.22-.667-.547-.111-.657-.667-1.095-1.333-1.095z"/>
</svg>
