<svg xmlns="http://www.w3.org/2000/svg" width="24" height="24" viewBox="0 0 24 24">
    <path fill="#012D74" fill-rule="evenodd" d="M12.262 2C11.015 2 10 3.051 10 4.344v3.125h1.508V4.344c0-.431.338-.782.754-.782h7.476c.416 0 .754.351.754.782v15.312c0 .431-.338.782-.754.782h-7.476c-.416 0-.754-.351-.754-.782v-3.125H10v3.125C10 20.95 11.015 22 12.262 22h7.476C20.985 22 22 20.949 22 19.656V4.344C22 3.05 20.985 2 19.738 2h-7.476zM7.097 7.217c-.266-.29-.699-.29-.965 0l-3.926 4.265c-.02.018-.031.04-.047.057l-.008.008c-.012.013-.02.03-.032.048-.004.004-.004.008-.008.013-.012.017-.02.034-.028.051 0 0-.004.005-.004.01l-.023.055c-.004.005-.004.005-.004.009-.008.021-.016.039-.02.06-.004 0-.004.005-.004.009l-.012.06c-.004.009-.004.013-.004.022-.004.017-.008.035-.008.052-.004.026-.004.047-.004.073 0 .026 0 .048.004.074l.008.051c.004.009.004.013.004.022 0 .022.008.039.012.06.004 0 .004.005.004.009.008.022.012.043.02.06.004.005.004.005.004.01l.023.055s.004.005.004.009l.028.052c.004.004.004.008.008.013.008.017.02.03.032.047l.008.009c.016.017.032.034.051.06l3.902 4.244c.131.143.306.216.48.216.175 0 .35-.073.48-.216.267-.29.267-.76 0-1.049L4.33 12.752h10.987c.377 0 .683-.333.683-.743 0-.406-.306-.738-.683-.738H4.334l2.763-3.005c.266-.29.266-.76 0-1.05z"/>
</svg>
