<svg xmlns="http://www.w3.org/2000/svg" width="24" height="24" viewBox="0 0 24 24">
    <g fill="#002E6D">
        <path d="M17.434 18.142l-.982-12.38c-.062-.797-.736-1.422-1.536-1.422h-1.94v-.087C12.975 1.908 11.067 0 8.722 0S4.47 1.908 4.47 4.253v.087H2.53c-.8 0-1.475.625-1.536 1.42L.011 18.145c-.076.991.268 1.978.944 2.708C1.63 21.582 2.589 22 3.583 22h10.28c.994 0 1.952-.418 2.628-1.148.675-.73 1.02-1.717.943-2.71zM5.759 4.252c0-1.634 1.33-2.963 2.964-2.963s2.964 1.33 2.964 2.964v.087H5.759v-.087zm9.786 15.724c-.439.474-1.037.735-1.683.735H3.583c-.646 0-1.244-.26-1.683-.735-.439-.474-.653-1.09-.604-1.732L2.28 5.861c.01-.13.12-.233.25-.233H4.47v1.587c0 .356.289.645.644.645.356 0 .645-.289.645-.645V5.628h5.928v1.587c0 .356.288.645.644.645.356 0 .644-.289.644-.645V5.628h1.94c.131 0 .242.102.252.234l.982 12.38c.05.645-.165 1.26-.604 1.734z" transform="translate(3 1)"/>
        <path d="M11.625 10.926c-.251-.251-.66-.251-.91 0l-2.878 2.877-1.106-1.106c-.252-.252-.66-.252-.911 0-.252.252-.252.66 0 .911l1.562 1.562c.126.126.29.189.455.189.165 0 .33-.063.456-.189l3.332-3.332c.252-.252.252-.66 0-.912z" transform="translate(3 1)"/>
    </g>
</svg>
