<svg xmlns="http://www.w3.org/2000/svg" width="24" height="24" viewBox="0 0 24 24">
    <path fill="#012D74" fill-rule="evenodd" d="M20.75 7.054h-3.955c.284-.196.527-.391.697-.566 1.008-1.027 1.008-2.7 0-3.726-.978-.999-2.686-1-3.666 0-.541.55-1.98 2.794-1.781 4.292h-.09c.197-1.498-1.24-3.741-1.781-4.292-.98-1-2.688-.999-3.666 0C5.5 3.789 5.5 5.46 6.506 6.488c.171.175.415.37.699.566H3.25c-.689 0-1.25.569-1.25 1.267v3.167c0 .35.28.633.625.633h.625v7.6c0 .698.561 1.267 1.25 1.267h15c.689 0 1.25-.57 1.25-1.267v-7.6h.625c.345 0 .625-.284.625-.633V8.32c0-.698-.561-1.267-1.25-1.267zm-13.356-3.4c.253-.258.59-.4.947-.4.356 0 .693.142.946.4.843.86 1.68 3.053 1.39 3.358 0 0-.053.042-.232.042-.864 0-2.513-.91-3.051-1.459-.524-.534-.524-1.406 0-1.94zm3.981 16.067H4.5v-7.6h6.875v7.6zm0-8.867H3.25V8.321h8.125v2.533zm3.338-7.2c.507-.515 1.387-.514 1.893 0 .524.535.524 1.407 0 1.941-.539.55-2.187 1.46-3.051 1.46-.179 0-.231-.041-.232-.043-.29-.305.547-2.499 1.39-3.357zM19.5 19.722h-6.875v-7.6H19.5v7.6zm1.25-8.867h-8.125V8.321h8.125v2.533z"/>
</svg>
