<svg xmlns="http://www.w3.org/2000/svg" width="24" height="24" viewBox="0 0 24 24">
    <g fill="#002E6D" fill-rule="evenodd">
        <path d="M18.667 3.846h-1.89V3.08c0-.329-.333-.548-.777-.548h-1.556C14.111 1.547 13.111 1 12 1s-2.111.547-2.444 1.532H8c-.333 0-.667.11-.667.548v.766h-2C4.111 3.846 3 4.83 3 6.035V20.92C3 22.124 4.111 23 5.333 23h13.334C20 23 21 22.015 21 20.92V6.035c-.111-1.204-1.111-2.19-2.333-2.19zM8.556 5.706v-1.86h1.333c.333 0 .555-.22.555-.547.112-.657.667-1.095 1.334-1.095.666 0 1.222.438 1.333 1.095.111.328.333.547.667.547h1.444v1.86H8.556zm11.11 15.214c0 .548-.555.88-1.11.88H5.333c-.555 0-1.11-.332-1.11-.88V6.144c0-.547.555-.985 1.11-.985h1.89v1.204c0 .329.333.547.666.547h7.889c.333 0 .666-.218.778-.656V5.159h2.11c.556 0 1 .438 1.112.985l-.111 14.776z"/>
        <g fill-rule="nonzero">
            <path d="M0 7.915L0 9.999 2.083 9.999 8.231 3.851 6.147 1.768zM9.836 1.46L8.54.163c-.217-.217-.57-.217-.786 0L6.736 1.179 8.82 3.263l1.017-1.017c.217-.217.217-.57 0-.786z" transform="translate(7 9)"/>
        </g>
    </g>
</svg>
