<svg xmlns="http://www.w3.org/2000/svg" width="24" height="24" viewBox="0 0 24 24">
    <path fill="#002E6D" fill-rule="evenodd" d="M17.08 15.136v.199-.2c-.293 0-2.344-.099-2.735-2.388.39-.299.781-.697 1.075-1.095.683-.896 1.074-1.991 1.27-3.186.097-.1.097-.1.097-.199.293-.697.391-1.394.391-2.09C17.178 3.29 15.028 1 12.391 1c-.684 0-1.368.2-1.954.498-.196 0-.489.1-.684.1-1.075.298-1.954 1.094-2.54 2.289-.489.995-.587 2.389-.196 3.584 0 .298.098.597.196.796 0 .1.097.1.097.2.293 1.79 1.075 3.384 2.345 4.28-.39 2.389-2.442 2.389-2.735 2.389-1.954.1-3.42 1.593-3.42 3.484v3.783c0 .398.293.597.684.597h15.632c.39 0 .684-.299.684-.597V18.62c0-1.792-1.563-3.385-3.42-3.484zM12 20.312c.39 0 .782-.199.977-.498l2.54-3.683c.684.299 1.368.299 1.368.299 1.27 0 2.247.995 2.247 2.29v3.185H4.868v-3.186c0-1.194.977-2.29 2.247-2.29 0 0 .782 0 1.368-.298l2.54 3.683c.195.399.586.498.977.498zM10.73 5.38l-.293-.299c-.098-.398-.391-.497-.684-.497-.39 0-.586.199-.684.497-.195.697-.489 1.295-.88 1.792-.292-1.891.49-3.683 1.955-4.081.195 0 .39-.1.488-.1.098 0 .196 0 .293-.1.489-.298.977-.397 1.466-.397 1.856 0 3.42 1.692 3.517 3.782-.39-.298-.88-.497-1.368-.497h-3.322c-.195 0-.39 0-.488-.1zm-.782.996c.391.298.782.398 1.27.398h3.322c.391 0 .782.199.88.597 0 2.688-1.564 4.878-3.42 4.878-.782 0-1.563-.398-2.247-1.195-.586-.697-.977-1.792-1.173-2.887.587-.497 1.075-1.095 1.368-1.791zm.977 6.968c.684.199 1.466.199 2.247 0 .196.796.684 1.593 1.368 2.19L12 19.018l-2.443-3.484c.684-.597 1.173-1.294 1.368-2.19z"/>
</svg>
